# xmcd
#
# Track frame offsets: 
#        150
#        10182
#        31455
#        50086
#        54578
#        72469
#        92374
#        96362
#        122371
#        140556
#        159755
#        162171
#        177055
#        201402
#
# Disc length: 2912 seconds
#
# Revision: 0
# Processed by: cddbd v1.5.2PL0 Copyright (c) Steve Scherf et al.
# Submitted via: ExactAudioCopy v0.99pb4
#
DISCID=b70b5e0e
DTITLE=Mark Whitfield - Mark Whitfield featuring Panther
DYEAR=2005
DGENRE=R&B
TTITLE0=After the Mix
TTITLE1=Ordinary Love
TTITLE2=Fantasy
TTITLE3=The Show
TTITLE4=Circles
TTITLE5=Always Up
TTITLE6=Guitars On Top
TTITLE7=Isis
TTITLE8=Runnin' Round
TTITLE9=Bitter Gift
TTITLE10=Sum Drums
TTITLE11=Move Mountains
TTITLE12=Lies
TTITLE13=Oblation
EXTD=
EXTT0=
EXTT1=
EXTT2=
EXTT3=
EXTT4=
EXTT5=
EXTT6=
EXTT7=
EXTT8=
EXTT9=
EXTT10=
EXTT11=
EXTT12=
EXTT13=
PLAYORDER=
